<svg viewBox="0 0 24 24" xmlns="http://www.w3.org/2000/svg">
  <path d="M3 6.5C3 5.67157 3.67157 5 4.5 5H9.17157C9.5694 5 9.95093 5.15804 10.2322 5.43934L11.5 6.70711C11.7812 6.98841 12.1628 7.14645 12.5606 7.14645H19.5C20.3284 7.14645 21 7.81802 21 8.64645V17.5C21 18.3284 20.3284 19 19.5 19H4.5C3.67157 19 3 18.3284 3 17.5V6.5Z" fill="#4A5D9E"/>
  <path d="M3 6.5C3 5.67157 3.67157 5 4.5 5H9.17157C9.5694 5 9.95093 5.15804 10.2322 5.43934L11.5 6.70711C11.7812 6.98841 12.1628 7.14645 12.5606 7.14645H19.5C20.3284 7.14645 21 7.81802 21 8.64645V17.5C21 18.3284 20.3284 19 19.5 19H4.5C3.67157 19 3 18.3284 3 17.5V6.5Z" fill="url(#folderGrad)" fill-opacity="0.35"/>
  <defs>
    <linearGradient id="folderGrad" x1="3" y1="5" x2="21" y2="19" gradientUnits="userSpaceOnUse">
      <stop stop-color="#FFFFFF"/>
      <stop offset="1" stop-color="#2B3A67"/>
    </linearGradient>
  </defs>
</svg>
